<?xml version="1.0" encoding="UTF-8" standalone="no"?>
<!DOCTYPE svg PUBLIC "-//W3C//DTD SVG 1.1//EN" "http://www.w3.org/Graphics/SVG/1.1/DTD/svg11.dtd">
<svg width="100%" height="100%" viewBox="0 0 116 82" version="1.1" xmlns="http://www.w3.org/2000/svg" xmlns:xlink="http://www.w3.org/1999/xlink" xml:space="preserve" xmlns:serif="http://www.serif.com/" style="fill-rule:evenodd;clip-rule:evenodd;stroke-linejoin:round;stroke-miterlimit:2;">
    <g transform="matrix(1,0,0,1,-203.544,-15630.2)">
        <g transform="matrix(1,0,0,1,0,13725)">
            <g id="White-Dwarf" serif:id="White Dwarf" transform="matrix(1,0,0,1,469,-9690.94)">
                <g transform="matrix(1.67394,0,0,1.67394,-452.189,-7949.02)">
                    <circle cx="145.695" cy="11700.6" r="24.483" style="fill:rgb(157,130,255);fill-opacity:0.49;"/>
                </g>
                <g transform="matrix(-0.000489608,-1.70006,0.623462,-0.000179554,-8321.07,12039.8)">
                    <path d="M235.491,12921L237.991,12975L232.991,12975L235.491,12921Z" style="fill:rgb(228,130,255);"/>
                </g>
                <g transform="matrix(0.000489608,-1.70006,-0.641977,-0.000184886,8144.69,12039.9)">
                    <path d="M235.491,12921L237.991,12975L232.991,12975L235.491,12921Z" style="fill:rgb(228,130,255);"/>
                </g>
                <g transform="matrix(1,0,0,1,-354,-63.5171)">
                    <circle cx="145.695" cy="11700.6" r="24.483" style="fill:white;"/>
                </g>
            </g>
        </g>
    </g>
</svg>
