<?xml version="1.0" encoding="UTF-8" standalone="no"?>
<!DOCTYPE svg PUBLIC "-//W3C//DTD SVG 1.1//EN" "http://www.w3.org/Graphics/SVG/1.1/DTD/svg11.dtd">
<svg width="100%" height="100%" viewBox="0 0 82 94" version="1.1" xmlns="http://www.w3.org/2000/svg" xmlns:xlink="http://www.w3.org/1999/xlink" xml:space="preserve" xmlns:serif="http://www.serif.com/" style="fill-rule:evenodd;clip-rule:evenodd;stroke-linejoin:round;stroke-miterlimit:2;">
    <g transform="matrix(1,0,0,1,-219.712,-15767.9)">
        <g transform="matrix(1,0,0,1,0,13725)">
            <g id="Neutron-star" serif:id="Neutron star" transform="matrix(1,0,0,1,469,-9546.94)">
                <g transform="matrix(1.67394,0,0,1.67394,-452.189,-7949.02)">
                    <circle cx="145.695" cy="11700.6" r="24.483" style="fill:rgb(130,147,255);fill-opacity:0.2;"/>
                </g>
                <g transform="matrix(1.26549,0,0,1.26549,-392.681,-3169.93)">
                    <circle cx="145.695" cy="11700.6" r="24.483" style="fill:rgb(51,17,103);fill-opacity:0.23;"/>
                </g>
                <g transform="matrix(-3.50449,1.85893,-0.333971,-0.629612,4927.19,19326)">
                    <path d="M235.491,12921L237.991,12975L232.991,12975L235.491,12921Z" style="fill:rgb(54,88,255);"/>
                </g>
                <g transform="matrix(-2.73152,1.70794,0.381982,0.610906,-4494.96,3350.59)">
                    <path d="M235.491,12921L237.991,12975L232.991,12975L235.491,12921Z" style="fill:rgb(54,88,255);"/>
                </g>
                <g transform="matrix(0.537093,0,0,0.537093,-286.557,5352.79)">
                    <circle cx="145.695" cy="11700.6" r="24.483" style="fill:white;"/>
                </g>
            </g>
        </g>
    </g>
</svg>
